<mxfile host="app.diagrams.net" modified="2023-06-29T11:48:56.767Z" agent="Mozilla/5.0 (Windows NT 10.0; Win64; x64) AppleWebKit/537.36 (KHTML, like Gecko) Chrome/114.0.0.0 Safari/537.36" etag="QjGtphu1KZ2uXcO1-2t2" version="21.5.2" type="device">
  <diagram name="Page-1" id="vdP1gmgI9g1kkvpfopkj">
    <mxGraphModel dx="1619" dy="1642" grid="1" gridSize="10" guides="1" tooltips="1" connect="1" arrows="1" fold="1" page="1" pageScale="1" pageWidth="827" pageHeight="1169" math="0" shadow="0">
      <root>
        <mxCell id="0" />
        <mxCell id="1" parent="0" />
        <mxCell id="xBst6ppxyOBWY5bgM_QN-3" value="" style="edgeStyle=orthogonalEdgeStyle;rounded=0;orthogonalLoop=1;jettySize=auto;html=1;" edge="1" parent="1" source="xBst6ppxyOBWY5bgM_QN-1" target="xBst6ppxyOBWY5bgM_QN-2">
          <mxGeometry relative="1" as="geometry" />
        </mxCell>
        <mxCell id="xBst6ppxyOBWY5bgM_QN-1" value="Branch" style="whiteSpace=wrap;html=1;align=center;" vertex="1" parent="1">
          <mxGeometry x="70" y="40" width="100" height="40" as="geometry" />
        </mxCell>
        <mxCell id="xBst6ppxyOBWY5bgM_QN-9" value="" style="edgeStyle=orthogonalEdgeStyle;rounded=0;orthogonalLoop=1;jettySize=auto;html=1;" edge="1" parent="1" source="xBst6ppxyOBWY5bgM_QN-2" target="xBst6ppxyOBWY5bgM_QN-8">
          <mxGeometry relative="1" as="geometry" />
        </mxCell>
        <mxCell id="xBst6ppxyOBWY5bgM_QN-2" value="stores" style="shape=rhombus;perimeter=rhombusPerimeter;whiteSpace=wrap;html=1;align=center;" vertex="1" parent="1">
          <mxGeometry x="250" y="30" width="120" height="60" as="geometry" />
        </mxCell>
        <mxCell id="xBst6ppxyOBWY5bgM_QN-7" style="rounded=0;orthogonalLoop=1;jettySize=auto;html=1;exitX=1;exitY=1;exitDx=0;exitDy=0;entryX=0;entryY=0;entryDx=0;entryDy=0;" edge="1" parent="1" source="xBst6ppxyOBWY5bgM_QN-4" target="xBst6ppxyOBWY5bgM_QN-1">
          <mxGeometry relative="1" as="geometry" />
        </mxCell>
        <mxCell id="xBst6ppxyOBWY5bgM_QN-4" value="Name" style="ellipse;whiteSpace=wrap;html=1;align=center;" vertex="1" parent="1">
          <mxGeometry x="-50" y="-20" width="100" height="40" as="geometry" />
        </mxCell>
        <mxCell id="xBst6ppxyOBWY5bgM_QN-6" style="rounded=0;orthogonalLoop=1;jettySize=auto;html=1;exitX=0.5;exitY=1;exitDx=0;exitDy=0;entryX=0.675;entryY=0.038;entryDx=0;entryDy=0;entryPerimeter=0;" edge="1" parent="1" source="xBst6ppxyOBWY5bgM_QN-5" target="xBst6ppxyOBWY5bgM_QN-1">
          <mxGeometry relative="1" as="geometry" />
        </mxCell>
        <mxCell id="xBst6ppxyOBWY5bgM_QN-5" value="City" style="ellipse;whiteSpace=wrap;html=1;align=center;" vertex="1" parent="1">
          <mxGeometry x="90" y="-50" width="100" height="40" as="geometry" />
        </mxCell>
        <mxCell id="xBst6ppxyOBWY5bgM_QN-25" value="" style="edgeStyle=orthogonalEdgeStyle;rounded=0;orthogonalLoop=1;jettySize=auto;html=1;" edge="1" parent="1" source="xBst6ppxyOBWY5bgM_QN-8" target="xBst6ppxyOBWY5bgM_QN-24">
          <mxGeometry relative="1" as="geometry" />
        </mxCell>
        <mxCell id="xBst6ppxyOBWY5bgM_QN-60" value="1" style="edgeLabel;html=1;align=center;verticalAlign=middle;resizable=0;points=[];" vertex="1" connectable="0" parent="xBst6ppxyOBWY5bgM_QN-25">
          <mxGeometry x="0.0042" y="7" relative="1" as="geometry">
            <mxPoint as="offset" />
          </mxGeometry>
        </mxCell>
        <mxCell id="xBst6ppxyOBWY5bgM_QN-28" value="" style="edgeStyle=orthogonalEdgeStyle;rounded=0;orthogonalLoop=1;jettySize=auto;html=1;" edge="1" parent="1" source="xBst6ppxyOBWY5bgM_QN-8" target="xBst6ppxyOBWY5bgM_QN-23">
          <mxGeometry relative="1" as="geometry" />
        </mxCell>
        <mxCell id="xBst6ppxyOBWY5bgM_QN-8" value="Customers" style="whiteSpace=wrap;html=1;align=center;" vertex="1" parent="1">
          <mxGeometry x="440" y="40" width="100" height="40" as="geometry" />
        </mxCell>
        <mxCell id="xBst6ppxyOBWY5bgM_QN-22" style="rounded=0;orthogonalLoop=1;jettySize=auto;html=1;exitX=0.5;exitY=1;exitDx=0;exitDy=0;entryX=0.325;entryY=-0.05;entryDx=0;entryDy=0;entryPerimeter=0;" edge="1" parent="1" source="xBst6ppxyOBWY5bgM_QN-10" target="xBst6ppxyOBWY5bgM_QN-8">
          <mxGeometry relative="1" as="geometry" />
        </mxCell>
        <mxCell id="xBst6ppxyOBWY5bgM_QN-10" value="customer name" style="ellipse;whiteSpace=wrap;html=1;align=center;" vertex="1" parent="1">
          <mxGeometry x="420" y="-80" width="100" height="40" as="geometry" />
        </mxCell>
        <mxCell id="xBst6ppxyOBWY5bgM_QN-14" style="rounded=0;orthogonalLoop=1;jettySize=auto;html=1;exitX=1;exitY=1;exitDx=0;exitDy=0;entryX=0;entryY=0;entryDx=0;entryDy=0;" edge="1" parent="1" source="xBst6ppxyOBWY5bgM_QN-11" target="xBst6ppxyOBWY5bgM_QN-8">
          <mxGeometry relative="1" as="geometry" />
        </mxCell>
        <mxCell id="xBst6ppxyOBWY5bgM_QN-11" value="Customer identity number" style="ellipse;whiteSpace=wrap;html=1;align=center;" vertex="1" parent="1">
          <mxGeometry x="320" y="-50" width="100" height="40" as="geometry" />
        </mxCell>
        <mxCell id="xBst6ppxyOBWY5bgM_QN-16" style="rounded=0;orthogonalLoop=1;jettySize=auto;html=1;exitX=0;exitY=1;exitDx=0;exitDy=0;entryX=0.605;entryY=-0.112;entryDx=0;entryDy=0;entryPerimeter=0;" edge="1" parent="1" source="xBst6ppxyOBWY5bgM_QN-12" target="xBst6ppxyOBWY5bgM_QN-8">
          <mxGeometry relative="1" as="geometry" />
        </mxCell>
        <mxCell id="xBst6ppxyOBWY5bgM_QN-12" value="Address" style="ellipse;whiteSpace=wrap;html=1;align=center;" vertex="1" parent="1">
          <mxGeometry x="520" y="-60" width="100" height="40" as="geometry" />
        </mxCell>
        <mxCell id="xBst6ppxyOBWY5bgM_QN-17" style="rounded=0;orthogonalLoop=1;jettySize=auto;html=1;exitX=0;exitY=1;exitDx=0;exitDy=0;entryX=1;entryY=0;entryDx=0;entryDy=0;" edge="1" parent="1" source="xBst6ppxyOBWY5bgM_QN-13" target="xBst6ppxyOBWY5bgM_QN-8">
          <mxGeometry relative="1" as="geometry" />
        </mxCell>
        <mxCell id="xBst6ppxyOBWY5bgM_QN-13" value="Telephone number" style="ellipse;shape=doubleEllipse;margin=3;whiteSpace=wrap;html=1;align=center;" vertex="1" parent="1">
          <mxGeometry x="560" y="-10" width="100" height="40" as="geometry" />
        </mxCell>
        <mxCell id="xBst6ppxyOBWY5bgM_QN-30" value="" style="edgeStyle=orthogonalEdgeStyle;rounded=0;orthogonalLoop=1;jettySize=auto;html=1;" edge="1" parent="1" source="xBst6ppxyOBWY5bgM_QN-23" target="xBst6ppxyOBWY5bgM_QN-29">
          <mxGeometry relative="1" as="geometry" />
        </mxCell>
        <mxCell id="xBst6ppxyOBWY5bgM_QN-23" value="Associated&lt;br&gt;with" style="shape=rhombus;perimeter=rhombusPerimeter;whiteSpace=wrap;html=1;align=center;" vertex="1" parent="1">
          <mxGeometry x="430" y="110" width="120" height="60" as="geometry" />
        </mxCell>
        <mxCell id="xBst6ppxyOBWY5bgM_QN-27" value="" style="edgeStyle=orthogonalEdgeStyle;rounded=0;orthogonalLoop=1;jettySize=auto;html=1;" edge="1" parent="1" source="xBst6ppxyOBWY5bgM_QN-24" target="xBst6ppxyOBWY5bgM_QN-26">
          <mxGeometry relative="1" as="geometry" />
        </mxCell>
        <mxCell id="xBst6ppxyOBWY5bgM_QN-24" value="have" style="shape=rhombus;perimeter=rhombusPerimeter;whiteSpace=wrap;html=1;align=center;" vertex="1" parent="1">
          <mxGeometry x="620" y="30" width="120" height="60" as="geometry" />
        </mxCell>
        <mxCell id="xBst6ppxyOBWY5bgM_QN-26" value="accounts" style="whiteSpace=wrap;html=1;align=center;" vertex="1" parent="1">
          <mxGeometry x="780" y="40" width="100" height="40" as="geometry" />
        </mxCell>
        <mxCell id="xBst6ppxyOBWY5bgM_QN-29" value="Employee" style="whiteSpace=wrap;html=1;align=center;" vertex="1" parent="1">
          <mxGeometry x="440" y="240" width="100" height="40" as="geometry" />
        </mxCell>
        <mxCell id="xBst6ppxyOBWY5bgM_QN-36" style="rounded=0;orthogonalLoop=1;jettySize=auto;html=1;exitX=1;exitY=0;exitDx=0;exitDy=0;entryX=0.11;entryY=0.913;entryDx=0;entryDy=0;entryPerimeter=0;" edge="1" parent="1" source="xBst6ppxyOBWY5bgM_QN-31" target="xBst6ppxyOBWY5bgM_QN-29">
          <mxGeometry relative="1" as="geometry" />
        </mxCell>
        <mxCell id="xBst6ppxyOBWY5bgM_QN-31" value="Employee number" style="ellipse;whiteSpace=wrap;html=1;align=center;" vertex="1" parent="1">
          <mxGeometry x="340" y="300" width="100" height="40" as="geometry" />
        </mxCell>
        <mxCell id="xBst6ppxyOBWY5bgM_QN-35" style="rounded=0;orthogonalLoop=1;jettySize=auto;html=1;exitX=0.5;exitY=0;exitDx=0;exitDy=0;entryX=0.5;entryY=1;entryDx=0;entryDy=0;" edge="1" parent="1" source="xBst6ppxyOBWY5bgM_QN-32" target="xBst6ppxyOBWY5bgM_QN-29">
          <mxGeometry relative="1" as="geometry" />
        </mxCell>
        <mxCell id="xBst6ppxyOBWY5bgM_QN-32" value="name" style="ellipse;whiteSpace=wrap;html=1;align=center;" vertex="1" parent="1">
          <mxGeometry x="450" y="310" width="100" height="40" as="geometry" />
        </mxCell>
        <mxCell id="xBst6ppxyOBWY5bgM_QN-41" style="rounded=0;orthogonalLoop=1;jettySize=auto;html=1;exitX=0;exitY=0;exitDx=0;exitDy=0;entryX=0.985;entryY=1.213;entryDx=0;entryDy=0;entryPerimeter=0;" edge="1" parent="1" source="xBst6ppxyOBWY5bgM_QN-33" target="xBst6ppxyOBWY5bgM_QN-29">
          <mxGeometry relative="1" as="geometry" />
        </mxCell>
        <mxCell id="xBst6ppxyOBWY5bgM_QN-33" value="Address" style="ellipse;whiteSpace=wrap;html=1;align=center;" vertex="1" parent="1">
          <mxGeometry x="570" y="310" width="100" height="40" as="geometry" />
        </mxCell>
        <mxCell id="xBst6ppxyOBWY5bgM_QN-37" style="rounded=0;orthogonalLoop=1;jettySize=auto;html=1;exitX=0;exitY=1;exitDx=0;exitDy=0;entryX=1;entryY=0.5;entryDx=0;entryDy=0;" edge="1" parent="1" source="xBst6ppxyOBWY5bgM_QN-34" target="xBst6ppxyOBWY5bgM_QN-29">
          <mxGeometry relative="1" as="geometry">
            <mxPoint x="550" y="260" as="targetPoint" />
          </mxGeometry>
        </mxCell>
        <mxCell id="xBst6ppxyOBWY5bgM_QN-34" value="Telephone number" style="ellipse;shape=doubleEllipse;margin=3;whiteSpace=wrap;html=1;align=center;" vertex="1" parent="1">
          <mxGeometry x="580" y="260" width="100" height="40" as="geometry" />
        </mxCell>
        <mxCell id="xBst6ppxyOBWY5bgM_QN-43" style="edgeStyle=orthogonalEdgeStyle;rounded=0;orthogonalLoop=1;jettySize=auto;html=1;exitX=1;exitY=0.5;exitDx=0;exitDy=0;entryX=0;entryY=0.75;entryDx=0;entryDy=0;" edge="1" parent="1" source="xBst6ppxyOBWY5bgM_QN-42" target="xBst6ppxyOBWY5bgM_QN-29">
          <mxGeometry relative="1" as="geometry" />
        </mxCell>
        <mxCell id="xBst6ppxyOBWY5bgM_QN-42" value="Length" style="ellipse;whiteSpace=wrap;html=1;align=center;dashed=1;" vertex="1" parent="1">
          <mxGeometry x="280" y="250" width="100" height="40" as="geometry" />
        </mxCell>
        <mxCell id="xBst6ppxyOBWY5bgM_QN-48" style="rounded=0;orthogonalLoop=1;jettySize=auto;html=1;exitX=0.5;exitY=1;exitDx=0;exitDy=0;entryX=0.685;entryY=-0.112;entryDx=0;entryDy=0;entryPerimeter=0;" edge="1" parent="1" source="xBst6ppxyOBWY5bgM_QN-45" target="xBst6ppxyOBWY5bgM_QN-26">
          <mxGeometry relative="1" as="geometry" />
        </mxCell>
        <mxCell id="xBst6ppxyOBWY5bgM_QN-45" value="Current account" style="ellipse;whiteSpace=wrap;html=1;align=center;" vertex="1" parent="1">
          <mxGeometry x="840" y="-40" width="100" height="40" as="geometry" />
        </mxCell>
        <mxCell id="xBst6ppxyOBWY5bgM_QN-47" style="rounded=0;orthogonalLoop=1;jettySize=auto;html=1;exitX=1;exitY=1;exitDx=0;exitDy=0;entryX=0.25;entryY=0;entryDx=0;entryDy=0;" edge="1" parent="1" source="xBst6ppxyOBWY5bgM_QN-46" target="xBst6ppxyOBWY5bgM_QN-26">
          <mxGeometry relative="1" as="geometry" />
        </mxCell>
        <mxCell id="xBst6ppxyOBWY5bgM_QN-46" value="Savings account" style="ellipse;whiteSpace=wrap;html=1;align=center;" vertex="1" parent="1">
          <mxGeometry x="710" y="-30" width="100" height="40" as="geometry" />
        </mxCell>
        <mxCell id="xBst6ppxyOBWY5bgM_QN-50" style="rounded=0;orthogonalLoop=1;jettySize=auto;html=1;exitX=0;exitY=0.5;exitDx=0;exitDy=0;entryX=1;entryY=0.5;entryDx=0;entryDy=0;" edge="1" parent="1" source="xBst6ppxyOBWY5bgM_QN-49" target="xBst6ppxyOBWY5bgM_QN-26">
          <mxGeometry relative="1" as="geometry" />
        </mxCell>
        <mxCell id="xBst6ppxyOBWY5bgM_QN-49" value="Account number" style="ellipse;whiteSpace=wrap;html=1;align=center;" vertex="1" parent="1">
          <mxGeometry x="920" y="10" width="100" height="40" as="geometry" />
        </mxCell>
        <mxCell id="xBst6ppxyOBWY5bgM_QN-53" style="rounded=0;orthogonalLoop=1;jettySize=auto;html=1;exitX=0;exitY=0.5;exitDx=0;exitDy=0;" edge="1" parent="1" source="xBst6ppxyOBWY5bgM_QN-51">
          <mxGeometry relative="1" as="geometry">
            <mxPoint x="540" y="250.00000000000023" as="targetPoint" />
          </mxGeometry>
        </mxCell>
        <mxCell id="xBst6ppxyOBWY5bgM_QN-51" value="Loan officer" style="ellipse;whiteSpace=wrap;html=1;align=center;" vertex="1" parent="1">
          <mxGeometry x="590" y="210" width="100" height="40" as="geometry" />
        </mxCell>
        <mxCell id="xBst6ppxyOBWY5bgM_QN-54" style="rounded=0;orthogonalLoop=1;jettySize=auto;html=1;exitX=0;exitY=1;exitDx=0;exitDy=0;entryX=0.75;entryY=0;entryDx=0;entryDy=0;" edge="1" parent="1" source="xBst6ppxyOBWY5bgM_QN-52" target="xBst6ppxyOBWY5bgM_QN-29">
          <mxGeometry relative="1" as="geometry" />
        </mxCell>
        <mxCell id="xBst6ppxyOBWY5bgM_QN-52" value="Personal banker" style="ellipse;whiteSpace=wrap;html=1;align=center;" vertex="1" parent="1">
          <mxGeometry x="510" y="180" width="100" height="40" as="geometry" />
        </mxCell>
        <mxCell id="xBst6ppxyOBWY5bgM_QN-57" style="rounded=0;orthogonalLoop=1;jettySize=auto;html=1;exitX=1;exitY=1;exitDx=0;exitDy=0;entryX=0.164;entryY=0.023;entryDx=0;entryDy=0;entryPerimeter=0;" edge="1" parent="1" source="xBst6ppxyOBWY5bgM_QN-56" target="xBst6ppxyOBWY5bgM_QN-29">
          <mxGeometry relative="1" as="geometry" />
        </mxCell>
        <mxCell id="xBst6ppxyOBWY5bgM_QN-56" value="Start date" style="ellipse;whiteSpace=wrap;html=1;align=center;" vertex="1" parent="1">
          <mxGeometry x="370" y="170" width="100" height="40" as="geometry" />
        </mxCell>
        <mxCell id="xBst6ppxyOBWY5bgM_QN-58" value="1" style="text;html=1;align=center;verticalAlign=middle;resizable=0;points=[];autosize=1;strokeColor=none;fillColor=none;" vertex="1" parent="1">
          <mxGeometry x="175" y="38" width="30" height="30" as="geometry" />
        </mxCell>
        <mxCell id="xBst6ppxyOBWY5bgM_QN-59" value="M" style="text;html=1;align=center;verticalAlign=middle;resizable=0;points=[];autosize=1;strokeColor=none;fillColor=none;" vertex="1" parent="1">
          <mxGeometry x="375" y="38" width="30" height="30" as="geometry" />
        </mxCell>
        <mxCell id="xBst6ppxyOBWY5bgM_QN-61" value="M" style="text;html=1;align=center;verticalAlign=middle;resizable=0;points=[];autosize=1;strokeColor=none;fillColor=none;" vertex="1" parent="1">
          <mxGeometry x="745" y="38" width="30" height="30" as="geometry" />
        </mxCell>
        <mxCell id="xBst6ppxyOBWY5bgM_QN-62" value="N" style="text;html=1;align=center;verticalAlign=middle;resizable=0;points=[];autosize=1;strokeColor=none;fillColor=none;" vertex="1" parent="1">
          <mxGeometry x="495" y="78" width="30" height="30" as="geometry" />
        </mxCell>
      </root>
    </mxGraphModel>
  </diagram>
</mxfile>
